<?xml version="1.0" standalone="no"?>
<!DOCTYPE svg PUBLIC "-//W3C//DTD SVG 20010904//EN"
 "http://www.w3.org/TR/2001/REC-SVG-20010904/DTD/svg10.dtd">
<svg version="1.0" xmlns="http://www.w3.org/2000/svg"
 width="512.000000pt" height="512.000000pt" viewBox="0 0 512.000000 512.000000"
 preserveAspectRatio="xMidYMid meet">
<metadata>
Created by potrace 1.14, written by Peter Selinger 2001-2017
</metadata>
<g transform="translate(0.000000,512.000000) scale(0.100000,-0.100000)"
fill="#000000" stroke="none">
<path d="M1424 3451 c-54 -13 -102 -50 -123 -95 -18 -36 -21 -61 -21 -164 l0
-122 1280 0 1280 0 0 122 c0 150 -16 193 -88 236 l-47 27 -1125 2 c-619 0
-1139 -2 -1156 -6z"/>
<path d="M1280 2228 c0 -408 1 -423 21 -465 15 -30 35 -52 67 -71 l47 -27
1145 0 1145 0 47 27 c32 19 52 41 67 71 20 42 21 57 21 465 l0 422 -1280 0
-1280 0 0 -422z m510 202 l0 -50 -175 0 -175 0 0 50 0 50 175 0 175 0 0 -50z
m1090 5 l0 -45 -425 0 -425 0 0 45 0 45 425 0 425 0 0 -45z m0 -270 l0 -45
-720 0 -720 0 0 45 0 45 720 0 720 0 0 -45z"/>
</g>
</svg>
